<?xml version="1.0" encoding="utf-8"?>
<!-- Generator: Adobe Illustrator 23.0.1, SVG Export Plug-In . SVG Version: 6.00 Build 0)  -->
<svg version="1.1" id="Layer_1" xmlns="http://www.w3.org/2000/svg" xmlns:xlink="http://www.w3.org/1999/xlink" x="0px" y="0px"
	 viewBox="0 0 440 200" style="enable-background:new 0 0 440 200;" xml:space="preserve">
<style type="text/css">
	.st0{fill:#333333;}
	.st1{font-family:'MyriadPro-SemiboldIt';}
	.st2{font-size:100px;}
	.st3{letter-spacing:-3;}
	.st4{font-size:90px;}
	.st5{letter-spacing:-2;}
	.st6{fill:#285680;}
	.st7{fill:#24AE5F;}
	.st8{fill:#FAC176;}
	.st9{fill:#88C057;}
	.st10{fill:none;}
	.st11{fill:#C4C8F5;}
	.st12{fill:#A7ADF0;}
	.st13{fill:#FFB655;}
	.st14{fill:#FF9811;}
	.st15{fill:#165C92;}
	.st16{fill:#96C8EF;}
	.st17{fill:#1E81CE;}
	.st18{fill:#D1E7F8;}
	.st19{fill:#666666;}
	.st20{font-family:'HoeflerText-Regular';}
	.st21{font-size:35px;}
	.st22{letter-spacing:1;}
</style>
<text transform="matrix(1 0 0 1 124.4927 127.2686)"><tspan x="0" y="0" class="st0 st1 st2 st3">80 </tspan><tspan x="113.1" y="0" class="st0 st1 st4 st5">Days</tspan></text>
<g>
	<circle class="st6" cx="67.38" cy="92.92" r="39.38"/>
	<g>
		<path class="st7" d="M67.38,53.53c-5.47,0-10.68,1.12-15.42,3.13c-0.22,1.29-1.29,3.49-1.26,4.19c0.15,0.03,10.01-10.05,8.79-3.25
			c-0.79,4.38-8.85,4.35-8.5,8.76c8.47,3.32,11.42-6.3,18.62-6.26c2.4,0.01,8.55-3.78,9.72-3.01c4.75,3.13-1.09,14.22-4.72,10.53
			c-3.49-3.49-8.48,1.22-8.25,6.67c1.82,0.08,2.59-5.16,4.22-3.41c1.8,1.92,1.15,5.8-1.34,6.69c-2.5,0.89-12.33-6.64-9.91-0.93
			c2.65,6.34-7.95,11.24,2.75,8.68c5.05-1.21,3.37,2.63,5.75,4.46c2.84,2.18,1.58-3.01,3.65-2.22c3.01,1.16-0.52,4.16,4.19,1.99
			c5.53-2.52,3.45,1.41,5.14,3.98c3.17,4.8,10.97,9.4,15.06,3.06c0.96-1.5,0.34-13.32,6.41-5.39c3.85,5.04,2.53-5.95,3.05-8.84
			C100.72,65.75,85.48,53.53,67.38,53.53z"/>
	</g>
	<path class="st8" d="M72.71,110.68l-7.26-5.44l-4.87,0.19l-5.05-1.59l-3.95-2.73l-8.97,2.07l-3.7,1.79l-4.11,5.54l1.46,6.5
		c0.42,0.54,0.85,1.06,1.29,1.58l7.62,3.56l5.14,0.69l3.06,6.28l0.09,0.63c4.34,1.64,9.03,2.55,13.94,2.55
		c3.39,0,6.67-0.43,9.81-1.23l1.03-6.17l4.7-3.81l1.95-6.09l-9.81-0.04L72.71,110.68z"/>
	<path class="st9" d="M28.51,99.23c0.19-0.02,0.21-0.03,0.23-0.05c1.76-1.76,3.23-2.05,4.7-4.7s-0.29-2.64,0-7.04
		c0.29-4.4-0.29-2.35,0-7.04c0.11-1.69-0.07-2.62-2.13-3.28C29.19,81.95,28,87.3,28,92.92C28,95.07,28.18,97.17,28.51,99.23z"/>
	<path class="st8" d="M68.74,125.51c-1.47-0.11-6.9-1.81-8.15-4.07c-1.25-2.26-3.96-6.11-4.07-5.43
		c-0.08,0.46-12.37-3.73-20.82-6.71l-0.91,1.22l1.46,6.5c0.42,0.54,0.85,1.06,1.29,1.58l7.62,3.56l5.14,0.69l3.06,6.28l0.09,0.63
		c4.34,1.64,9.03,2.55,13.94,2.55c3.39,0,6.67-0.43,9.81-1.23l0.78-4.68c-0.69-0.22-1.49-0.5-2.45-0.88
		C71.8,124.04,70.21,125.62,68.74,125.51z"/>
	<path class="st9" d="M82.93,121.09l1.95-6.09l-9.81-0.04l-2.36-4.28l-7.26-5.44l-4.87,0.19l-5.05-1.59l-3.95-2.73l-8.97,2.07
		l-3.7,1.79l-3.21,4.32c8.45,2.98,20.74,7.17,20.82,6.71c0.11-0.68,2.83,3.17,4.07,5.43c1.25,2.26,6.68,3.96,8.15,4.07
		c1.47,0.11,3.06-1.47,6.79,0c0.96,0.38,1.75,0.66,2.45,0.88l0.25-1.49L82.93,121.09z"/>
	<path class="st10" d="M82.22,56.46c-0.26,4.97-0.46,8.56-0.46,8.56l-7.59,7.59c0,0,7.11,10.2,7.59,11.38
		c0.47,1.19,6.4,2.61,7.59,1.9c1.19-0.71,5.69-4.51,7.59-1.9c1.32,1.82,1.15,3.4,1.96,4.52c0.56,0.01,1.26,0.38,2.13,1.26
		c1.23,0.37,2.64,0.73,3.89,1.03c0.42-2.43,0.11-6.77,0.41-8.43C102.06,70.58,93.42,61.02,82.22,56.46z"/>
	<path class="st8" d="M86.85,58.7c-0.25,4.69-0.45,8.41-0.45,8.41l-5.43,5.43c0,0,5.09,7.3,5.43,8.15c0.34,0.85,4.58,1.87,5.43,1.36
		c0.85-0.51,4.07-3.23,5.43-1.36s0.51,3.4,2.72,4.07c1.86,0.57,4.44,1.14,5.19,1.31c0.01-1.51,0.01-2.91,0.16-3.7
		C102.53,72.26,95.77,63.79,86.85,58.7z"/>
</g>
<g>
	<polygon class="st11" points="92.38,40.6 90.37,45.38 100.18,52.18 103.94,48.62 	"/>
	<polygon class="st11" points="92.27,27.79 86.31,36.39 92.46,37.19 100.27,25.93 	"/>
	<polygon class="st12" points="110.02,52.83 115.99,44.23 114.92,36.09 107.11,47.35 	"/>
	
		<rect x="87.84" y="47.44" transform="matrix(0.5698 -0.8218 0.8218 0.5698 -1.6631 94.7495)" class="st13" width="3.66" height="3.04"/>
	
		<rect x="95.24" y="52.58" transform="matrix(0.5698 -0.8218 0.8218 0.5698 -2.6972 103.044)" class="st14" width="3.66" height="3.04"/>
	
		<rect x="90.11" y="50.68" transform="matrix(0.5698 -0.8218 0.8218 0.5698 -2.9691 98.723)" class="st13" width="5.39" height="3.04"/>
	<path class="st15" d="M118.29,16.68l-0.35-0.59l-4.3,6.2c1.73,1.2,2.15,3.57,0.96,5.29c-1.2,1.73-3.57,2.15-5.29,0.96L98.16,44.61
		l7.32,5.08l12.3-17.74C120.94,27.41,121.13,21.42,118.29,16.68z"/>
	<path class="st16" d="M114.6,27.59c1.2-1.73,0.77-4.09-0.96-5.29l-4.33,6.25C111.03,29.74,113.4,29.31,114.6,27.59z"/>
	<path class="st17" d="M109.3,28.54c-1.73-1.2-2.15-3.57-0.96-5.29c1.2-1.73,3.57-2.15,5.29-0.96l4.3-6.2l-0.68-0.12
		c-1.68-0.31-3.38-0.31-5.06-0.01c-3.7,0.67-6.92,2.74-9.06,5.83l-12.3,17.74l7.32,5.08L109.3,28.54z"/>
	<path class="st18" d="M108.35,23.25c-1.2,1.73-0.77,4.09,0.96,5.29l4.33-6.25C111.91,21.1,109.54,21.53,108.35,23.25z"/>
</g>
<text transform="matrix(1 0 0 1 33.7881 169.1816)" class="st19 st20 st21 st22">Around the Earth</text>
</svg>
